<?xml version="1.0" encoding="iso-8859-1"?>
<!-- Generator: Adobe Illustrator 17.1.0, SVG Export Plug-In . SVG Version: 6.00 Build 0)  -->
<!DOCTYPE svg PUBLIC "-//W3C//DTD SVG 1.1//EN" "http://www.w3.org/Graphics/SVG/1.1/DTD/svg11.dtd">
<svg version="1.1" id="Capa_1" xmlns="http://www.w3.org/2000/svg" xmlns:xlink="http://www.w3.org/1999/xlink" x="0px" y="0px"
	 viewBox="0 0 370.667 370.667" style="enable-background:new 0 0 370.667 370.667;" xml:space="preserve">
<path d="M118.911,132.971c20.765,0,37.658-16.894,37.658-37.659c0-20.766-16.893-37.661-37.658-37.661
	c-20.768,0-37.664,16.895-37.664,37.661C81.248,116.077,98.144,132.971,118.911,132.971z M118.911,75.651
	c10.839,0,19.658,8.82,19.658,19.661c0,10.84-8.818,19.659-19.658,19.659c-10.842,0-19.664-8.819-19.664-19.659
	C99.248,84.471,108.069,75.651,118.911,75.651z M242.443,132.971c20.766,0,37.66-16.894,37.66-37.659
	c0-20.766-16.894-37.661-37.66-37.661s-37.66,16.895-37.66,37.661C204.783,116.077,221.677,132.971,242.443,132.971z
	 M242.443,75.651c10.84,0,19.66,8.82,19.66,19.661c0,10.84-8.819,19.659-19.66,19.659s-19.66-8.819-19.66-19.659
	C222.783,84.471,231.603,75.651,242.443,75.651z M174.754,215.35l13.739-31.828c6.528-15.117,18.277-35.213,44.838-35.213h18.227
	c26.562,0,38.31,20.097,44.835,35.213l13.74,31.828c1.97,4.563-0.132,9.86-4.695,11.83c-4.565,1.971-9.86-0.132-11.83-4.695
	l-13.74-31.828c-7.466-17.293-15.668-24.347-28.31-24.347h-18.227c-12.642,0-20.845,7.054-28.312,24.348l-13.738,31.827
	c-1.468,3.401-4.784,5.436-8.268,5.436c-1.19,0-2.4-0.238-3.563-0.739C174.887,225.21,172.784,219.913,174.754,215.35z
	 M370.442,246.027c-0.57,3.704-2.63,9.105-9.204,13.781c-12.428,8.839-37.562,12.465-68.147,12.466
	c-34.62,0-76.225-4.645-114.308-11.635c-47.394-8.698-91.4-21.052-123.914-34.786c-37.664-15.91-54.802-31.231-52.396-46.842
	c2.562-16.663,25.494-21.195,33.03-22.684c4.878-0.965,9.61,2.208,10.574,7.084s-2.208,9.611-7.084,10.574
	c-16.737,3.308-18.723,7.723-18.729,7.765c-0.271,1.759,5.59,11.498,36.404,25.256l10.138-23.484
	c6.528-15.117,18.278-35.213,44.838-35.213h18.227c13.521,0,24.806,5.343,33.542,15.881c3.172,3.827,2.642,9.5-1.185,12.672
	c-3.825,3.173-9.5,2.643-12.672-1.185c-5.298-6.391-11.553-9.368-19.684-9.368h-18.227c-12.642,0-20.845,7.054-28.313,24.348
	l-10.015,23.197c29.924,11.401,67.964,21.601,108.716,29.08c88.737,16.287,153.184,13.292,168.772,2.206
	c1.442-1.025,1.829-1.735,1.848-1.855c0.007-0.046-0.231-4.802-14.417-13.784c-4.2-2.659-5.449-8.219-2.79-12.418
	c2.659-4.2,8.22-5.448,12.418-2.79C364.707,224.956,372.092,235.337,370.442,246.027z M358.579,284.296
	c3.625,3.401,3.805,9.097,0.403,12.721c-10.672,11.371-38.003,16-72.351,16c-34.239,0-75.449-4.596-114.117-11.693
	C89.107,286.016,20.587,260.341,2.01,237.435c-3.131-3.86-2.539-9.528,1.321-12.659c3.861-3.13,9.528-2.54,12.659,1.321
	c13.352,16.463,72.52,41.508,159.773,57.521c99.572,18.276,160.362,11.449,170.094,1.08
	C349.259,281.074,354.954,280.892,358.579,284.296z"/>
<g>
</g>
<g>
</g>
<g>
</g>
<g>
</g>
<g>
</g>
<g>
</g>
<g>
</g>
<g>
</g>
<g>
</g>
<g>
</g>
<g>
</g>
<g>
</g>
<g>
</g>
<g>
</g>
<g>
</g>
</svg>
