<?xml version="1.0" encoding="iso-8859-1"?>
<!-- Generator: Adobe Illustrator 19.0.0, SVG Export Plug-In . SVG Version: 6.00 Build 0)  -->
<svg xmlns="http://www.w3.org/2000/svg" xmlns:xlink="http://www.w3.org/1999/xlink" version="1.1" id="Capa_1" x="0px" y="0px" viewBox="0 0 30.25 30.25" style="enable-background:new 0 0 30.25 30.25;" xml:space="preserve" width="512px" height="512px">
<path d="M19.25,0.063h-2v4h2V0.063z M28.496,4.418l-1.414-1.414l-2.828,2.828l1.414,1.414L28.496,4.418z M14.496,5.832l-2.828-2.828  l-1.414,1.414l2.828,2.828L14.496,5.832z M19.25,6.188L0,25.438l4.75,4.75l19.313-19.313L19.25,6.188z M15.188,13.188l4.063-4.063  l2,1.875l-4.125,4.125L15.188,13.188z M22.691,17.793l2.828,2.828l1.414-1.414l-2.828-2.828L22.691,17.793z M26.25,12.063v2h4v-2  H26.25z" fill="#FFFFFF"/>
<g>
</g>
<g>
</g>
<g>
</g>
<g>
</g>
<g>
</g>
<g>
</g>
<g>
</g>
<g>
</g>
<g>
</g>
<g>
</g>
<g>
</g>
<g>
</g>
<g>
</g>
<g>
</g>
<g>
</g>
</svg>
